<svg xmlns="http://www.w3.org/2000/svg" xmlns:xlink="http://www.w3.org/1999/xlink" xmlns:inkscape="http://www.inkscape.org/namespaces/inkscape" version="1.1"   viewBox="271.93 165.15 297.79 277.23">
<defs>
<clipPath id="clip_1">
<path transform="matrix(1,0,0,-1,0,595.276)" d="M0 595.276H841.89V0H0Z"/>
</clipPath>
<clipPath id="clip_2">
<path transform="matrix(1,0,0,-1,0,595.276)" d="M441.044 279.893H515.914V377.82H441.044Z"/>
</clipPath>
<clipPath id="clip_3">
<path transform="matrix(1,0,0,-1,0,595.276)" d="M0 595.276H841.89V0H0Z"/>
</clipPath>
</defs>
<g>
<g inkscape:groupmode="layer" inkscape:label="&#x30EC;&#x30A4;&#x30E4;&#x30FC; 1">
<g clip-path="url(#clip_1)">
<g opacity=".789993">
<g clip-path="url(#clip_2)">
<path transform="matrix(1,0,0,-1,448.6366,256.6182)" d="M0 0H59.558C59.57 .043 59.58 .059 59.577 .071 59.562 .13 59.55 .191 59.527 .247 59.158 1.125 59.036 2.044 59.043 2.989 59.052 4.157 59.046 5.326 59.047 6.495 59.049 15.035 59.046 23.576 59.058 32.116 59.061 34.52 57.209 36.4 54.776 36.391 45.067 36.353 35.357 36.373 25.648 36.372 18.682 36.371 11.715 36.372 4.749 36.368 3.036 36.368 1.572 35.365 .924 33.783 .665 33.151 .581 32.498 .581 31.819 .583 22.235 .574 12.65 .577 3.066 .577 2.027 .48 1.014 0 0M29.796-13.144C19.025-13.144 8.255-13.144-2.515-13.144-3.513-13.144-4.511-13.162-5.508-13.139-5.892-13.131-6.29-13.083-6.653-12.964-7.309-12.751-7.585-12.312-7.585-11.62-7.584-9.89-7.585-8.16-7.574-6.43-7.566-5.147-7.296-3.927-6.65-2.805-5.931-1.559-4.893-.669-3.575-.116-3.095 .086-2.788 .412-2.567 .863-2.264 1.482-2.173 2.14-2.173 2.816-2.17 10.765-2.168 18.714-2.167 26.663-2.166 28.517-2.172 30.372-2.167 32.227-2.161 34.417-1.312 36.224 .358 37.633 1.613 38.692 3.088 39.155 4.722 39.153 8.65 39.151 12.578 39.153 16.506 39.154 29.38 39.156 42.255 39.157 55.129 39.162 58.661 39.163 61.615 36.447 61.827 32.917 61.917 31.426 61.882 29.926 61.882 28.43 61.882 23.099 61.874 17.769 61.869 12.438 61.867 9.274 61.866 6.11 61.865 2.946 61.864 2.305 61.902 1.67 62.162 1.068 62.406 .504 62.766 .105 63.361-.156 65.582-1.128 66.84-2.857 67.165-5.254 67.236-5.777 67.251-6.309 67.255-6.838 67.266-8.38 67.26-9.924 67.259-11.467 67.259-12.255 66.913-12.758 66.155-12.991 65.832-13.091 65.483-13.146 65.146-13.147 60.236-13.155 55.327-13.15 50.417-13.15 46.972-13.149 43.528-13.151 40.083-13.151 36.654-13.151 33.225-13.151 29.796-13.151Z" fill="#268eae"/>
<path transform="matrix(1,0,0,-1,487.4093,296.9964)" d="M0 0C-.035 .029-.071 .058-.106 .087 .091 .794 .243 1.509 .183 2.243 .16 2.525 .279 2.662 .496 2.799 1.3 3.307 2.092 3.831 2.889 4.348 6.886 6.943 10.879 9.543 14.881 12.13 16.293 13.043 17.721 13.933 19.155 14.813 19.438 14.987 19.542 15.173 19.478 15.491 19.429 15.735 19.424 15.987 19.394 16.234 19.334 16.741 19.269 17.247 19.204 17.773H-37.082C-37.111 17.649-37.146 17.547-37.158 17.442-37.23 16.822-37.27 16.198-37.373 15.585-37.439 15.184-37.307 14.978-36.967 14.768-35.125 13.631-33.3 12.467-31.472 11.308-28.145 9.198-24.82 7.086-21.496 4.97-20.379 4.259-19.273 3.533-18.158 2.818-17.948 2.683-17.851 2.536-17.839 2.258-17.814 1.655-17.712 1.054-17.641 .453-17.626 .328-17.607 .203-17.576-.017-19.887 1.45-22.107 2.859-24.327 4.27-26.548 5.681-28.767 7.096-30.989 8.505-33.202 9.91-35.399 11.343-37.65 12.732-37.851 11.914-40.832-15.779-40.766-16.115-39.913-16.224 22.506-16.154 22.856-16.037 21.821-6.465 20.785 3.112 19.742 12.757 13.12 8.478 6.56 4.239 0 0M-46.331 24.111C-46.139 24.035-45.995 23.99-45.861 23.923-44.906 23.448-43.905 23.29-42.834 23.291-23.678 23.307-4.521 23.301 14.635 23.3 18.174 23.3 21.712 23.312 25.25 23.296 26.158 23.292 27.011 23.47 27.833 23.837 28.015 23.919 28.202 23.992 28.431 24.088 28.453 23.933 28.482 23.819 28.482 23.705 28.485 21.554 28.538 19.401 28.471 17.252 28.406 15.175 27.585 13.448 25.757 12.312 24.928 11.797 24.004 11.599 23.04 11.569 22.747 11.56 22.454 11.568 22.108 11.568 22.156 11.076 22.197 10.633 22.243 10.191 22.517 7.603 22.789 5.016 23.068 2.429 23.329-.003 23.6-2.434 23.863-4.865 24.037-6.476 24.198-8.088 24.377-9.698 24.608-11.788 24.86-13.875 25.084-15.965 25.206-17.099 24.43-18.342 22.935-18.377 22.109-18.397 21.283-18.381 20.457-18.381 .069-18.377-20.319-18.369-40.707-18.381-42.258-18.382-43.246-17.172-43.029-15.689-42.764-13.871-42.616-12.036-42.412-10.209-41.986-6.399-41.551-2.591-41.129 1.218-40.832 3.897-40.552 6.578-40.26 9.258-40.179 10.001-40.081 10.742-39.984 11.547-40.293 11.557-40.581 11.569-40.87 11.574-41.969 11.59-42.994 11.853-43.913 12.479-45.208 13.361-45.961 14.592-46.229 16.119-46.315 16.607-46.354 17.11-46.357 17.606-46.371 19.601-46.363 21.596-46.36 23.591-46.36 23.744-46.343 23.896-46.331 24.111" fill="#268eae"/>
<path transform="matrix(1,0,0,-1,488.5415,241.0953)" d="M0 0C-.092 3.25-1.366 6.052-4.003 8.184-6.515 10.215-9.386 10.839-12.519 10.193-14.87 9.708-16.82 8.495-18.349 6.642-20.397 4.159-21.202 1.31-20.678-1.869-20.347-3.88-19.496-5.677-18.097-7.174-15.38-10.08-12.036-11.211-8.145-10.395-3.706-9.464-.058-5.388 0 0M-10.007-13.023C-13.614-13.036-16.438-11.928-18.845-9.774-21.233-7.635-22.681-4.968-23.115-1.784-23.472 .838-23.018 3.34-21.825 5.7-20.524 8.273-18.565 10.199-15.995 11.495-13.739 12.633-11.341 13.08-8.836 12.75-4.321 12.155-1.075 9.711 1.002 5.719 2.72 2.419 2.84-1.042 1.614-4.521 .624-7.332-1.221-9.512-3.729-11.118-5.748-12.412-7.971-13.03-10.007-13.023" fill="#268eae"/>
<path transform="matrix(1,0,0,-1,478.6115,293.0763)" d="M0 0C.258 .313 .505 .656 .795 .957 1.979 2.184 3.4 2.693 5.078 2.244 6.792 1.786 7.963 .202 8.016-1.657 8.049-2.796 7.748-3.853 7.138-4.805 6.796-5.34 6.406-5.854 5.977-6.322 4.626-7.793 3.124-9.106 1.599-10.392 1.065-10.842 .526-11.285-.018-11.737-.152-11.65-.263-11.593-.356-11.515-2.316-9.853-4.291-8.205-6.048-6.322-6.986-5.316-7.715-4.175-7.936-2.789-8.215-1.043-7.859 .509-6.356 1.616-4.832 2.739-2.799 2.64-1.309 1.364-.841 .963-.449 .473 0 0" fill="#268eae"/>
<path transform="matrix(1,0,0,-1,478.1478,249.4133)" d="M0 0C-4.415-.048-8.226 3.551-8.156 8.311-8.087 13.036-4.347 16.45 .07 16.446 4.549 16.443 8.148 12.778 8.161 8.284 8.173 3.664 4.515-.013 0 0" fill="#268eae"/>
</g>
</g>
</g>
<path transform="matrix(1,0,0,-1,336.2623,302.6901)" d="M0 0H-12.866V85.363H5.597L17.587 24.044 29.096 85.363H46.834V0H33.968V53.642L22.805 0H12.458L0 53.506Z" fill="#d46b25"/>
<g clip-path="url(#clip_3)">
<path transform="matrix(1,0,0,-1,400.1554,318.9136)" d="M0 0V10.126C2.412 10.126 4.374 10.264 5.891 10.539 7.405 10.815 8.507 11.299 9.198 11.987 9.885 12.676 10.23 13.639 10.23 14.879 10.23 15.775 10.006 17.187 9.559 19.116 9.11 21.044 8.611 23.146 8.061 25.42L-5.063 75.951H8.578L16.327 36.58 23.045 75.951H36.582L22.631 13.847C21.872 10.333 20.598 7.579 18.808 5.579 17.015 3.583 14.777 2.153 12.09 1.29 9.404 .43 6.268 0 2.688 0Z" fill="#d46b25"/>
<path transform="matrix(1,0,0,-1,319.9064,391.99519)" d="M0 0H-12.865V85.363H23.758V72.429H0V49.149H17.358V36.214H0Z" fill="#d46b25"/>
<path transform="matrix(1,0,0,-1,427.1833,381.6948)" d="M0 0C-4.616 0-8.319 .879-11.109 2.635-13.898 4.392-15.931 6.906-17.205 10.179-18.48 13.451-19.116 17.325-19.116 21.804V39.784C-19.116 44.399-18.48 48.325-17.205 51.565-15.931 54.801-13.882 57.282-11.057 59.005-8.232 60.726-4.547 61.587 0 61.587 4.27 61.587 7.766 60.916 10.489 59.573 13.209 58.229 15.19 56.197 16.43 53.476 17.67 50.753 18.29 47.328 18.29 43.195V38.234H5.063V43.505C5.063 45.571 4.908 47.207 4.598 48.413 4.288 49.617 3.754 50.48 2.997 50.996 2.238 51.512 1.24 51.771 0 51.771-1.24 51.771-2.239 51.443-2.997 50.79-3.756 50.135-4.288 49.084-4.598 47.638-4.908 46.192-5.063 44.192-5.063 41.645V19.738C-5.063 15.878-4.651 13.279-3.823 11.935-2.997 10.593-1.689 9.92 .104 9.92 1.48 9.92 2.532 10.23 3.256 10.85 3.978 11.47 4.459 12.383 4.702 13.59 4.942 14.793 5.063 16.259 5.063 17.98V24.387H18.29V18.704C18.29 14.708 17.652 11.298 16.379 8.474 15.103 5.648 13.105 3.53 10.385 2.119 7.663 .708 4.202 0 0 0" fill="#d46b25"/>
<path transform="matrix(1,0,0,-1,464.2781,381.6948)" d="M0 0C-2.343 0-4.272 .604-5.786 1.809-7.302 3.013-8.405 4.633-9.092 6.666-9.783 8.696-10.126 10.85-10.126 13.124V60.657H3.927V15.707C3.927 13.916 4.219 12.52 4.806 11.522 5.391 10.523 6.474 10.024 8.061 10.024 9.094 10.024 10.144 10.299 11.213 10.85 12.279 11.402 13.331 12.055 14.365 12.814V60.657H28.418V.93H14.365V6.613C12.365 4.684 10.161 3.1 7.751 1.86 5.338 .62 2.755 0 0 0" fill="#d46b25"/>
<path transform="matrix(1,0,0,-1,519.7682,381.6948)" d="M0 0C-5.03 0-9.163 1.344-12.401 4.031-15.638 6.717-17.946 10.644-19.324 15.811L-8.888 19.84C-8.06 16.602-6.959 14.122-5.581 12.401-4.203 10.678-2.413 9.818-.206 9.818 1.446 9.818 2.687 10.23 3.513 11.058 4.339 11.884 4.753 13.021 4.753 14.467 4.753 16.121 4.253 17.619 3.256 18.963 2.255 20.305 .55 21.976-1.86 23.975L-9.094 30.07C-11.713 32.345-13.831 34.669-15.448 37.047-17.069 39.423-17.878 42.401-17.878 45.984-17.878 49.222-17.138 51.993-15.656 54.303-14.175 56.61-12.142 58.401-9.559 59.676-6.975 60.95-4.099 61.587-.93 61.587 4.029 61.587 7.991 60.157 10.953 57.299 13.914 54.44 15.843 50.702 16.74 46.088L7.234 42.161C6.888 43.814 6.388 45.346 5.734 46.759 5.079 48.17 4.237 49.324 3.203 50.221 2.17 51.116 .93 51.565-.516 51.565-1.964 51.565-3.118 51.116-3.978 50.221-4.841 49.324-5.271 48.188-5.271 46.812-5.271 45.639-4.771 44.434-3.772 43.195-2.774 41.955-1.344 40.542 .516 38.958L7.854 32.345C9.438 30.965 10.953 29.484 12.401 27.9 13.847 26.315 15.051 24.542 16.017 22.58 16.981 20.615 17.464 18.359 17.464 15.811 17.464 12.365 16.689 9.471 15.138 7.131 13.588 4.788 11.487 3.013 8.835 1.809 6.182 .604 3.237 0 0 0" fill="#d46b25"/>
<path transform="matrix(1,0,0,-1,288.1198,210.37799)" d="M0 0H-2.402V31.401H29.013V29.019H.002C-.002 25.757 .001 22.54 0 19.322 0 16.112 0 12.903 0 9.693Z" fill="#d46b25"/>
<path transform="matrix(1,0,0,-1,556.0814,210.38751)" d="M0 0H-2.35V29.01H-31.359V31.411H.028C.129 30.772 .101 .344 0 0" fill="#d46b25"/>
<path transform="matrix(1,0,0,-1,288.1129,426.5785)" d="M0 0H29.02V-2.391H-2.394V29.01H0Z" fill="#d46b25"/>
<path transform="matrix(1,0,0,-1,524.7063,428.9682)" d="M0 0V2.395C1.939 2.405 3.871 2.398 5.802 2.399 7.725 2.4 9.647 2.4 11.57 2.4H17.386 23.154C25.089 2.4 27.024 2.4 29.004 2.4V31.399H31.431V0Z" fill="#d46b25"/>
<path transform="matrix(1,0,0,-1,299.1382,205.432)" d="M0 0H-3.652C-3.671 .136-3.703 .257-3.703 .378-3.704 3.516-3.704 6.654-3.699 9.793-3.698 10.553-3.536 11.288-3.252 11.99-2.259 14.445-.475 15.966 2.136 16.482 2.47 16.548 2.816 16.591 3.156 16.592 6.315 16.6 9.475 16.596 12.634 16.594 12.781 16.594 12.927 16.576 13.087 16.565 13.207 16.256 13.14 15.953 13.152 15.659 13.164 15.359 13.156 15.057 13.156 14.756 13.156 14.455 13.156 14.154 13.153 13.854 13.15 13.556 13.167 13.257 13.126 12.941 12.88 12.84 12.642 12.879 12.413 12.879 9.447 12.876 6.482 12.88 3.516 12.876 3.238 12.876 2.949 12.886 2.684 12.818 1.316 12.469 .464 11.569 .057 10.242-.023 9.982-.008 9.688-.008 9.41-.009 6.508-.003 3.606 0 .704 0 .493 0 .281 0 0" fill="#d46b25"/>
<path transform="matrix(1,0,0,-1,312.2727,415.22163)" d="M0 0V-3.537C-.144-3.726-.329-3.675-.493-3.676-1.76-3.68-3.028-3.679-4.295-3.68-6.079-3.682-7.862-3.692-9.645-3.683-12.65-3.668-15.68-1.893-16.625 1.731-16.755 2.23-16.838 2.738-16.838 3.258-16.836 6.331-16.837 9.403-16.835 12.476-16.835 12.602-16.824 12.728-16.816 12.891-16.21 13.016-15.613 12.949-15.022 12.965-14.425 12.982-13.826 12.966-13.192 12.96-13.176 12.742-13.152 12.576-13.152 12.41-13.151 9.616-13.153 6.823-13.154 4.03-13.155 3.836-13.159 3.643-13.154 3.45-13.109 1.988-12.108 .649-10.723 .206-10.312 .074-9.891 .016-9.456 .017-6.556 .024-3.655 .021-.755 .021-.523 .02-.291 .008 0 0" fill="#d46b25"/>
<path transform="matrix(1,0,0,-1,546.468,205.7554)" d="M0 0C-.85-.065-3.131-.047-3.612 .023-3.719 .173-3.674 .35-3.674 .516-3.673 3.438-3.684 6.361-3.658 9.283-3.646 10.582-4.204 11.549-5.214 12.297-5.749 12.693-6.354 12.867-7.023 12.866-9.902 12.859-12.782 12.862-15.661 12.864-16.022 12.865-16.385 12.842-16.71 12.881-16.76 12.928-16.778 12.941-16.79 12.958-16.801 12.975-16.81 12.997-16.81 13.016-16.816 14.048-16.822 15.079-16.826 16.11-16.826 16.236-16.813 16.363-16.805 16.524-16.671 16.544-16.55 16.577-16.429 16.577-13.184 16.579-9.94 16.586-6.695 16.572-5.53 16.568-4.453 16.189-3.464 15.602-1.49 14.429-.38 12.667-.068 10.402-.004 9.936 .011 9.46 .012 8.989 .021 6.238 .02 3.487 .021 .737 .021 .504 .008 .272 0 0" fill="#d46b25"/>
<path transform="matrix(1,0,0,-1,529.7131,418.8775)" d="M0 0C-.079 .648-.077 3.029-.001 3.622 .211 3.71 .449 3.668 .678 3.668 3.557 3.672 6.437 3.674 9.316 3.669 9.684 3.668 10.042 3.71 10.4 3.787 11.963 4.123 13.006 5.526 13.094 7.01 13.105 7.202 13.097 7.396 13.097 7.59 13.095 10.362 13.092 13.134 13.092 15.906 13.091 16.117 13.106 16.328 13.114 16.559 13.43 16.677 13.731 16.608 14.023 16.618 14.323 16.628 14.625 16.622 14.925 16.621 15.205 16.619 15.484 16.617 15.763 16.608 16.06 16.599 16.36 16.634 16.632 16.576 16.795 16.38 16.744 16.179 16.746 15.993 16.757 14.553 16.765 13.114 16.769 11.674 16.774 10.17 16.779 8.666 16.773 7.161 16.766 5.685 16.357 4.33 15.541 3.091 14.546 1.58 13.141 .667 11.416 .213 10.814 .054 10.196-.031 9.571-.031 6.563-.029 3.555-.027 .547-.023 .378-.023 .209-.009 0 0" fill="#d46b25"/>
<path transform="matrix(1,0,0,-1,391.3336,349.216)" d="M0 0C.063 .245-.024 .451-.05 .657-.299 2.651-.842 4.564-1.698 6.38-2.821 8.762-4.36 10.845-6.336 12.59-6.95 13.134-7.582 13.67-8.263 14.123-9.961 15.255-11.767 16.178-13.749 16.721-14.899 17.037-16.053 17.328-17.252 17.388-17.341 17.393-17.432 17.362-17.552 17.343-17.552 16.748-17.552 16.182-17.552 15.616-17.553 15.029-17.548 14.442-17.557 13.855-17.566 13.293-17.511 12.728-17.591 12.167-17.669 12.144-17.723 12.113-17.778 12.112-18.639 12.111-19.499 12.111-20.36 12.118-20.431 12.118-20.502 12.162-20.598 12.195-20.598 12.421-20.598 12.635-20.598 12.849-20.598 14.2-20.596 15.55-20.6 16.9-20.6 17.049-20.552 17.216-20.721 17.375-22.556 17.348-24.31 16.811-26.022 16.153-28.826 15.074-31.224 13.375-33.242 11.156-34.999 9.222-36.293 7.001-37.156 4.534-37.612 3.228-38.169 .924-38.055-.007-37.872-.015-37.681-.032-37.491-.032-36.082-.034-34.673-.032-33.264-.035-33.115-.035-32.949 .013-32.801-.156-32.801-1.085-32.8-2.042-32.804-3-32.804-3.05-32.85-3.1-32.883-3.169-33.078-3.175-33.271-3.184-33.464-3.185-34.853-3.188-36.242-3.188-37.631-3.193-37.782-3.194-37.948-3.149-38.078-3.289-38.081-3.342-38.091-3.401-38.086-3.458-37.984-4.61-37.782-5.743-37.461-6.855-36.616-9.789-35.106-12.34-33.023-14.558-31.456-16.227-29.672-17.613-27.623-18.642-25.653-19.632-23.579-20.297-21.383-20.554-21.14-20.582-20.886-20.634-20.612-20.514-20.611-19.939-20.609-19.374-20.609-18.81-20.608-18.242-20.614-17.675-20.606-17.107-20.599-16.545-20.643-15.98-20.573-15.396-19.646-15.307-18.749-15.355-17.854-15.367-17.762-15.368-17.67-15.398-17.577-15.415-17.49-15.65-17.521-15.866-17.519-16.077-17.511-17.408-17.508-18.738-17.498-20.069-17.496-20.236-17.549-20.422-17.385-20.575-16.844-20.637-16.303-20.515-15.77-20.426-13.789-20.096-11.909-19.433-10.15-18.478-8.019-17.323-6.139-15.839-4.546-13.993-1.935-10.968-.44-7.468 .014-3.509 .024-3.417 .053-3.314-.076-3.212-.233-3.205-.426-3.191-.618-3.191-2.008-3.187-3.397-3.188-4.786-3.181-4.955-3.18-5.137-3.232-5.288-3.112-5.372-2.436-5.358-.51-5.26-.046-4.921-.02-4.572-.035-4.224-.033-3.871-.03-3.519-.031-3.167-.031-2.815-.031-2.463-.032-2.11-.032-1.758-.032-1.406-.037-1.054-.03-.707-.024-.356-.063 0 0M-44.51-3.21C-44.887-3.158-45.257-3.195-45.624-3.19-45.995-3.185-46.367-3.188-46.739-3.188-47.11-3.187-47.482-3.191-47.854-3.185-48.221-3.18-48.589-3.208-48.946-3.168-49.026-2.695-49.038-.684-48.965-.066-48.844-.054-48.714-.031-48.584-.031-47.429-.027-46.275-.029-45.121-.027-44.928-.027-44.735-.017-44.528-.012-44.497 .082-44.457 .152-44.452 .224-44.233 3.259-43.476 6.162-42.217 8.923-41.214 11.121-39.903 13.128-38.31 14.959-36.559 16.971-34.536 18.649-32.293 20.067-30.835 20.989-29.265 21.686-27.643 22.274-26.001 22.869-24.305 23.232-22.592 23.531-22.113 23.614-21.621 23.63-21.134 23.675-20.981 23.689-20.828 23.696-20.694 23.705-20.543 23.883-20.594 24.066-20.593 24.235-20.588 25.39-20.59 26.544-20.59 27.699-20.59 27.893-20.59 28.087-20.59 28.299-20.495 28.328-20.425 28.369-20.355 28.369-19.494 28.373-18.634 28.372-17.773 28.369-17.719 28.369-17.664 28.34-17.577 28.316-17.514 27.933-17.554 27.544-17.546 27.159-17.538 26.787-17.539 26.415-17.539 26.044-17.538 25.652-17.542 25.261-17.54 24.87-17.537 24.501-17.563 24.131-17.516 23.741-16.74 23.65-15.987 23.584-15.242 23.469-14.49 23.352-13.74 23.214-13.001 23.034-12.243 22.85-11.492 22.631-10.754 22.379-10.034 22.133-9.326 21.848-8.631 21.537-7.937 21.227-7.25 20.891-6.587 20.517-5.924 20.143-5.281 19.729-4.656 19.295-4.029 18.861-3.418 18.402-2.832 17.914-2.232 17.414-1.652 16.886-1.097 16.336-.557 15.799-.043 15.232 .452 14.653 .947 14.073 1.431 13.48 1.869 12.858 2.307 12.235 2.701 11.579 3.078 10.917 3.456 10.255 3.818 9.582 4.134 8.889 4.45 8.197 4.722 7.483 4.975 6.765 5.235 6.029 5.479 5.284 5.674 4.528 5.865 3.792 6.011 3.041 6.129 2.29 6.247 1.541 6.307 .783 6.395 .002 6.783-.061 7.153-.021 7.52-.028 7.892-.035 8.264-.03 8.635-.03 8.987-.03 9.34-.029 9.692-.032 10.059-.035 10.428-.016 10.827-.05 10.898-.402 10.861-.732 10.868-1.058 10.875-1.41 10.871-1.762 10.869-2.114 10.868-2.444 10.864-2.774 10.861-3.133 10.695-3.153 10.565-3.182 10.434-3.182 9.3-3.185 8.165-3.183 7.03-3.183 6.837-3.183 6.643-3.183 6.502-3.183 6.325-3.289 6.354-3.42 6.341-3.53 6.252-4.306 6.186-5.084 6.06-5.858 5.777-7.604 5.286-9.283 4.636-10.926 3.36-14.156 1.486-16.991-.948-19.457-2.479-21.009-4.199-22.323-6.064-23.459-8.496-24.94-11.118-25.911-13.883-26.517-14.778-26.712-15.686-26.858-16.605-26.92-16.893-26.939-17.179-27.001-17.474-27.044-17.574-27.576-17.479-28.083-17.496-28.588-17.515-29.116-17.507-29.644-17.523-30.172-17.538-30.677-17.455-31.185-17.538-31.683-17.627-31.708-17.682-31.737-17.738-31.738-18.618-31.742-19.499-31.743-20.379-31.742-20.433-31.742-20.487-31.712-20.575-31.686-20.639-31.386-20.596-31.075-20.6-30.768-20.604-30.455-20.599-30.141-20.599-29.828-20.6-29.535-20.604-29.241-20.605-28.948-20.606-28.635-20.602-28.322-20.606-28.009-20.609-27.699-20.582-27.388-20.629-27.045-20.931-27.002-21.215-26.949-21.502-26.924-22.71-26.819-23.902-26.614-25.079-26.322-27.949-25.61-30.62-24.45-33.079-22.797-36.741-20.335-39.625-17.175-41.661-13.26-42.951-10.779-43.834-8.158-44.219-5.379-44.315-4.683-44.406-3.986-44.51-3.21" fill="#268eae"/>
<path transform="matrix(1,0,0,-1,380.1039,349.26673)" d="M0 0V-3.039C-.152-3.19-.338-3.133-.506-3.133-2.207-3.138-3.908-3.136-5.609-3.136H-6.168C-6.363-3.323-6.297-3.529-6.298-3.715-6.299-5.181-6.293-6.648-6.292-8.115-6.291-8.504-6.299-8.894-6.303-9.261-6.363-9.307-6.393-9.349-6.425-9.351-7.381-9.412-8.337-9.357-9.265-9.371-9.431-9.188-9.377-9.003-9.377-8.835-9.382-7.173-9.379-5.511-9.381-3.848-9.381-3.637-9.394-3.426-9.401-3.22-9.609-3.093-9.809-3.14-9.998-3.14-11.66-3.135-13.322-3.136-14.984-3.134-15.176-3.134-15.369-3.124-15.515-3.119-15.575-3.074-15.594-3.065-15.605-3.05-15.615-3.035-15.621-3.013-15.622-2.995-15.632-2.155-15.642-1.314-15.649-.474-15.65-.339-15.635-.203-15.628-.079-15.464 .069-15.28 .015-15.111 .016-13.449 .02-11.787 .018-10.125 .018H-9.508C-9.324 .183-9.383 .37-9.383 .537-9.378 2.2-9.379 3.862-9.377 5.524-9.377 5.736-9.367 5.948-9.361 6.187-9.015 6.275-8.684 6.225-8.359 6.233-8.027 6.243-7.694 6.24-7.362 6.234-7.034 6.229-6.704 6.262-6.35 6.202-6.291 5.772-6.318 5.364-6.311 4.958-6.303 4.548-6.309 4.137-6.308 3.726-6.307 3.335-6.305 2.944-6.304 2.553-6.303 2.142-6.304 1.732-6.301 1.321-6.298 .913-6.291 .506-6.287 .109-6.095-.023-5.914 .02-5.746 .02-4.045 .017-2.343 .018-.642 .017-.45 .017-.257 .007 0 0" fill="#268eae"/>
</g>
</g>
</g>
</svg>
